<svg width="98" height="105" viewBox="0 0 98 105" fill="none" xmlns="http://www.w3.org/2000/svg">
<path d="M94.075 55.376H84.284C82.165 55.376 80.424 53.634 80.424 51.522V41.728C80.424 39.615 82.165 37.874 84.284 37.874H94.075C96.2 37.874 97.927 39.606 97.927 41.728V51.522C97.927 53.634 96.201 55.376 94.075 55.376Z" fill="#71B7DC"/>
<path d="M63.852 43.965H52.045C49.487 43.965 47.405 41.877 47.405 39.325V27.521C47.405 24.967 49.487 22.884 52.045 22.884H63.852C66.404 22.884 68.492 24.967 68.492 27.521V39.325C68.492 41.876 66.403 43.965 63.852 43.965Z" fill="#C2DFF3"/>
<path d="M55.077 83.605H66.887C69.438 83.605 71.527 85.688 71.527 88.246V100.053C71.527 102.592 69.438 104.687 66.887 104.687H55.077C52.532 104.687 50.437 102.592 50.437 100.053V88.246C50.438 85.7 52.532 83.605 55.077 83.605Z" fill="#C2DFF3"/>
<path d="M34.643 73.308V59.011C34.643 55.918 37.164 53.388 40.257 53.388H54.554C57.641 53.388 60.174 55.918 60.174 59.011V73.308C60.174 76.396 57.641 78.929 54.554 78.929H40.257C37.169 78.929 34.643 76.396 34.643 73.308Z" fill="#71B7DC"/>
<path d="M38.125 12.009H31.476C30.045 12.009 28.858 10.83 28.858 9.397V2.75C28.858 1.316 30.04 0.138 31.476 0.138H38.125C39.55 0.138 40.737 1.316 40.737 2.75V9.396C40.737 10.831 39.55 12.009 38.125 12.009Z" fill="#C2DFF3"/>
<path d="M14.341 62.284H20.99C22.428 62.284 23.602 63.462 23.602 64.903V71.549C23.602 72.987 22.427 74.168 20.99 74.168H14.341C12.91 74.168 11.735 72.998 11.735 71.549V64.903C11.735 63.462 12.904 62.284 14.341 62.284Z" fill="#C2DFF3"/>
<path d="M28.675 83.605H34.301C35.507 83.605 36.506 84.604 36.506 85.816V91.423C36.506 92.642 35.513 93.64 34.301 93.64H28.688C27.476 93.64 26.477 92.642 26.477 91.423V85.816C26.471 84.604 27.469 83.605 28.675 83.605Z" fill="#C2DFF3"/>
<path d="M8.08099 19.143H27.256C31.402 19.143 34.788 22.535 34.788 26.682V45.85C34.788 49.987 31.402 53.389 27.256 53.389H8.08099C3.92899 53.389 0.536995 49.988 0.536995 45.85V26.681C0.536995 22.534 3.92899 19.143 8.08099 19.143Z" fill="#71B7DC"/>
</svg>
